solid OBJECT
  facet normal 0.74998180366995804 -0.54489367559639157 0.37499090183497902
    outer loop
      vertex 0 0 10
      vertex 0.51502832395824572 -1.5850941938252558 6.666666666666667
      vertex 1.6666666666666665 0 6.666666666666667
    endloop
  endfacet
  facet normal -0.28646755805797319 -0.88165648736982061 0.37499090183497896
    outer loop
      vertex 0 0 10
      vertex -1.3483616572915789 -0.97964208715412204 6.666666666666667
      vertex 0.51502832395824572 -1.5850941938252558 6.666666666666667
    endloop
  endfacet
  facet normal -0.92702849122396946 0 0.37499090183497902
    outer loop
      vertex 0 0 10
      vertex -1.3483616572915789 0.9796420871541216 6.666666666666667
      vertex -1.3483616572915789 -0.97964208715412204 6.666666666666667
    endloop
  endfacet
  facet normal -0.28646755805797347 0.88165648736982061 0.37499090183497902
    outer loop
      vertex 0 0 10
      vertex 0.51502832395824538 1.5850941938252558 6.666666666666667
      vertex -1.3483616572915789 0.9796420871541216 6.666666666666667
    endloop
  endfacet
  facet normal 0.74998180366995804 0.54489367559639168 0.37499090183497902
    outer loop
      vertex 0 0 10
      vertex 1.6666666666666665 0 6.666666666666667
      vertex 0.51502832395824538 1.5850941938252558 6.666666666666667
    endloop
  endfacet
  facet normal 0.74998180366995804 -0.54489367559639157 0.37499090183497907
    outer loop
      vertex 1.6666666666666665 0 6.666666666666667
      vertex 0.51502832395824572 -1.5850941938252558 6.666666666666667
      vertex 1.0300566479164914 -3.1701883876505117 3.3333333333333339
    endloop
  endfacet
  facet normal -0.28646755805797319 -0.88165648736982061 0.37499090183497896
    outer loop
      vertex 0.51502832395824572 -1.5850941938252558 6.666666666666667
      vertex -1.3483616572915789 -0.97964208715412204 6.666666666666667
      vertex -2.6967233145831577 -1.9592841743082441 3.3333333333333339
    endloop
  endfacet
  facet normal -0.92702849122396946 0 0.37499090183497902
    outer loop
      vertex -1.3483616572915789 -0.97964208715412204 6.666666666666667
      vertex -1.3483616572915789 0.9796420871541216 6.666666666666667
      vertex -2.6967233145831577 1.9592841743082432 3.3333333333333339
    endloop
  endfacet
  facet normal -0.28646755805797347 0.88165648736982061 0.37499090183497902
    outer loop
      vertex -1.3483616572915789 0.9796420871541216 6.666666666666667
      vertex 0.51502832395824538 1.5850941938252558 6.666666666666667
      vertex 1.0300566479164908 3.1701883876505117 3.3333333333333339
    endloop
  endfacet
  facet normal 0.74998180366995804 0.54489367559639168 0.37499090183497902
    outer loop
      vertex 0.51502832395824538 1.5850941938252558 6.666666666666667
      vertex 1.6666666666666665 0 6.666666666666667
      vertex 1.0300566479164908 3.1701883876505117 3.3333333333333339
    endloop
  endfacet
  facet normal 0.74998180366995815 -0.54489367559639168 0.37499090183497902
    outer loop
      vertex 3.333333333333333 0 3.3333333333333339
      vertex 1.0300566479164914 -3.1701883876505117 3.3333333333333339
      vertex 1.5450849718747373 -4.7552825814757673 0
    endloop
  endfacet
  facet normal -0.28646755805797325 -0.88165648736982072 0.37499090183497896
    outer loop
      vertex 1.0300566479164914 -3.1701883876505117 3.3333333333333339
      vertex -2.6967233145831577 -1.9592841743082441 3.3333333333333339
      vertex 1.5450849718747373 -4.7552825814757673 0
    endloop
  endfacet
  facet normal -0.92702849122396946 0 0.37499090183497891
    outer loop
      vertex -2.6967233145831577 -1.9592841743082441 3.3333333333333339
      vertex -2.6967233145831577 1.9592841743082432 3.3333333333333339
      vertex -4.0450849718747364 -2.9389262614623664 0
    endloop
  endfacet
  facet normal -0.28646755805797347 0.88165648736982061 0.37499090183497907
    outer loop
      vertex -2.6967233145831577 1.9592841743082432 3.3333333333333339
      vertex 1.0300566479164908 3.1701883876505117 3.3333333333333339
      vertex 1.5450849718747361 4.7552825814757682 0
    endloop
  endfacet
  facet normal 0.74998180366995804 0.54489367559639168 0.37499090183497902
    outer loop
      vertex 1.0300566479164908 3.1701883876505117 3.3333333333333339
      vertex 3.333333333333333 0 3.3333333333333339
      vertex 5 0 0
    endloop
  endfacet
  facet normal 0 0 -1
    outer loop
      vertex 0 0 0
      vertex 5 0 0
      vertex 1.5450849718747373 -4.7552825814757673 0
    endloop
  endfacet
  facet normal 0 0 -1
    outer loop
      vertex 0 0 0
      vertex 1.5450849718747373 -4.7552825814757673 0
      vertex -4.0450849718747364 -2.9389262614623664 0
    endloop
  endfacet
  facet normal 0 0 -1
    outer loop
      vertex 0 0 0
      vertex -4.0450849718747364 -2.9389262614623664 0
      vertex -4.0450849718747373 2.938926261462365 0
    endloop
  endfacet
  facet normal 0 -0 -1
    outer loop
      vertex 0 0 0
      vertex -4.0450849718747373 2.938926261462365 0
      vertex 1.5450849718747361 4.7552825814757682 0
    endloop
  endfacet
  facet normal -0 0 -1
    outer loop
      vertex 0 0 0
      vertex 1.5450849718747361 4.7552825814757682 0
      vertex 5 0 0
    endloop
  endfacet
  facet normal 0.74998180366995804 -0.54489367559639157 0.37499090183497907
    outer loop
      vertex 1.6666666666666665 0 6.666666666666667
      vertex 1.0300566479164914 -3.1701883876505117 3.3333333333333339
      vertex 3.333333333333333 0 3.3333333333333339
    endloop
  endfacet
  facet normal -0.28646755805797319 -0.88165648736982061 0.37499090183497902
    outer loop
      vertex 0.51502832395824572 -1.5850941938252558 6.666666666666667
      vertex -2.6967233145831577 -1.9592841743082441 3.3333333333333339
      vertex 1.0300566479164914 -3.1701883876505117 3.3333333333333339
    endloop
  endfacet
  facet normal -0.92702849122396958 0 0.37499090183497907
    outer loop
      vertex -1.3483616572915789 -0.97964208715412204 6.666666666666667
      vertex -2.6967233145831577 1.9592841743082432 3.3333333333333339
      vertex -2.6967233145831577 -1.9592841743082441 3.3333333333333339
    endloop
  endfacet
  facet normal -0.28646755805797347 0.88165648736982061 0.37499090183497902
    outer loop
      vertex -1.3483616572915789 0.9796420871541216 6.666666666666667
      vertex 1.0300566479164908 3.1701883876505117 3.3333333333333339
      vertex -2.6967233145831577 1.9592841743082432 3.3333333333333339
    endloop
  endfacet
  facet normal 0.74998180366995804 0.54489367559639168 0.37499090183497902
    outer loop
      vertex 1.6666666666666665 0 6.666666666666667
      vertex 3.333333333333333 0 3.3333333333333339
      vertex 1.0300566479164908 3.1701883876505117 3.3333333333333339
    endloop
  endfacet
  facet normal 0.74998180366995804 -0.54489367559639157 0.37499090183497902
    outer loop
      vertex 3.333333333333333 0 3.3333333333333339
      vertex 1.5450849718747373 -4.7552825814757673 0
      vertex 5 0 0
    endloop
  endfacet
  facet normal -0.28646755805797319 -0.88165648736982061 0.37499090183497896
    outer loop
      vertex -2.6967233145831577 -1.9592841743082441 3.3333333333333339
      vertex -4.0450849718747364 -2.9389262614623664 0
      vertex 1.5450849718747373 -4.7552825814757673 0
    endloop
  endfacet
  facet normal -0.92702849122396958 -1.4007950984496661e-16 0.37499090183497913
    outer loop
      vertex -2.6967233145831577 1.9592841743082432 3.3333333333333339
      vertex -4.0450849718747373 2.938926261462365 0
      vertex -4.0450849718747364 -2.9389262614623664 0
    endloop
  endfacet
  facet normal -0.28646755805797353 0.88165648736982061 0.37499090183497902
    outer loop
      vertex -2.6967233145831577 1.9592841743082432 3.3333333333333339
      vertex 1.5450849718747361 4.7552825814757682 0
      vertex -4.0450849718747373 2.938926261462365 0
    endloop
  endfacet
  facet normal 0.74998180366995804 0.54489367559639168 0.37499090183497902
    outer loop
      vertex 1.0300566479164908 3.1701883876505117 3.3333333333333339
      vertex 5 0 0
      vertex 1.5450849718747361 4.7552825814757682 0
    endloop
  endfacet
endsolid OBJECT
