solid OBJECT
  facet normal 0.83871698080331025 -0.34740794844134576 0.41935849040165524
    outer loop
      vertex 0 0 10
      vertex 0.58925565098878963 -0.58925565098878963 8.3333333333333339
      vertex 0.83333333333333326 0 8.3333333333333339
    endloop
  endfacet
  facet normal 0.34740794844134576 -0.83871698080331025 0.41935849040165524
    outer loop
      vertex 0 0 10
      vertex 5.1026949964473046e-17 -0.83333333333333326 8.3333333333333339
      vertex 0.58925565098878963 -0.58925565098878963 8.3333333333333339
    endloop
  endfacet
  facet normal -0.34740794844134582 -0.83871698080331025 0.41935849040165524
    outer loop
      vertex 0 0 10
      vertex -0.58925565098878951 -0.58925565098878963 8.3333333333333339
      vertex 5.1026949964473046e-17 -0.83333333333333326 8.3333333333333339
    endloop
  endfacet
  facet normal -0.83871698080331003 -0.34740794844134593 0.41935849040165513
    outer loop
      vertex 0 0 10
      vertex -0.83333333333333326 -1.0205389992894609e-16 8.3333333333333339
      vertex -0.58925565098878951 -0.58925565098878963 8.3333333333333339
    endloop
  endfacet
  facet normal -0.83871698080331025 0.34740794844134565 0.41935849040165524
    outer loop
      vertex 0 0 10
      vertex -0.58925565098878974 0.58925565098878951 8.3333333333333339
      vertex -0.83333333333333326 -1.0205389992894609e-16 8.3333333333333339
    endloop
  endfacet
  facet normal -0.34740794844134582 0.83871698080331003 0.41935849040165513
    outer loop
      vertex 0 0 10
      vertex -1.5308084989341913e-16 0.83333333333333326 8.3333333333333339
      vertex -0.58925565098878974 0.58925565098878951 8.3333333333333339
    endloop
  endfacet
  facet normal 0.34740794844134565 0.83871698080331025 0.41935849040165524
    outer loop
      vertex 0 0 10
      vertex 0.5892556509887894 0.58925565098878974 8.3333333333333339
      vertex -1.5308084989341913e-16 0.83333333333333326 8.3333333333333339
    endloop
  endfacet
  facet normal 0.83871698080331003 0.34740794844134593 0.41935849040165513
    outer loop
      vertex 0 0 10
      vertex 0.83333333333333326 0 8.3333333333333339
      vertex 0.5892556509887894 0.58925565098878974 8.3333333333333339
    endloop
  endfacet
  facet normal 0.83871698080331025 -0.34740794844134576 0.41935849040165502
    outer loop
      vertex 0.83333333333333326 0 8.3333333333333339
      vertex 0.58925565098878963 -0.58925565098878963 8.3333333333333339
      vertex 1.6666666666666665 0 6.666666666666667
    endloop
  endfacet
  facet normal 0.34740794844134576 -0.83871698080331025 0.41935849040165502
    outer loop
      vertex 0.58925565098878963 -0.58925565098878963 8.3333333333333339
      vertex 5.1026949964473046e-17 -0.83333333333333326 8.3333333333333339
      vertex 1.0205389992894609e-16 -1.6666666666666665 6.666666666666667
    endloop
  endfacet
  facet normal -0.34740794844134576 -0.83871698080331014 0.41935849040165496
    outer loop
      vertex 5.1026949964473046e-17 -0.83333333333333326 8.3333333333333339
      vertex -0.58925565098878951 -0.58925565098878963 8.3333333333333339
      vertex -1.178511301977579 -1.1785113019775793 6.666666666666667
    endloop
  endfacet
  facet normal -0.83871698080331025 -0.34740794844134582 0.41935849040165502
    outer loop
      vertex -0.58925565098878951 -0.58925565098878963 8.3333333333333339
      vertex -0.83333333333333326 -1.0205389992894609e-16 8.3333333333333339
      vertex -1.6666666666666665 -2.0410779985789218e-16 6.666666666666667
    endloop
  endfacet
  facet normal -0.83871698080331025 0.34740794844134565 0.41935849040165496
    outer loop
      vertex -0.83333333333333326 -1.0205389992894609e-16 8.3333333333333339
      vertex -0.58925565098878974 0.58925565098878951 8.3333333333333339
      vertex -1.1785113019775795 1.178511301977579 6.666666666666667
    endloop
  endfacet
  facet normal -0.34740794844134593 0.83871698080331025 0.41935849040165507
    outer loop
      vertex -0.58925565098878974 0.58925565098878951 8.3333333333333339
      vertex -1.5308084989341913e-16 0.83333333333333326 8.3333333333333339
      vertex -3.0616169978683826e-16 1.6666666666666665 6.666666666666667
    endloop
  endfacet
  facet normal 0.34740794844134565 0.83871698080331025 0.41935849040165496
    outer loop
      vertex -1.5308084989341913e-16 0.83333333333333326 8.3333333333333339
      vertex 0.5892556509887894 0.58925565098878974 8.3333333333333339
      vertex 1.1785113019775788 1.1785113019775795 6.666666666666667
    endloop
  endfacet
  facet normal 0.83871698080331025 0.34740794844134598 0.41935849040165502
    outer loop
      vertex 0.5892556509887894 0.58925565098878974 8.3333333333333339
      vertex 0.83333333333333326 0 8.3333333333333339
      vertex 1.6666666666666665 0 6.666666666666667
    endloop
  endfacet
  facet normal 0.83871698080331014 -0.34740794844134576 0.41935849040165502
    outer loop
      vertex 1.6666666666666665 0 6.666666666666667
      vertex 1.1785113019775793 -1.1785113019775793 6.666666666666667
      vertex 1.7677669529663689 -1.7677669529663689 5
    endloop
  endfacet
  facet normal 0.34740794844134576 -0.83871698080331025 0.41935849040165513
    outer loop
      vertex 1.1785113019775793 -1.1785113019775793 6.666666666666667
      vertex 1.0205389992894609e-16 -1.6666666666666665 6.666666666666667
      vertex 1.5308084989341916e-16 -2.5 5
    endloop
  endfacet
  facet normal -0.34740794844134582 -0.83871698080331025 0.41935849040165502
    outer loop
      vertex 1.0205389992894609e-16 -1.6666666666666665 6.666666666666667
      vertex -1.178511301977579 -1.1785113019775793 6.666666666666667
      vertex -1.7677669529663687 -1.7677669529663689 5
    endloop
  endfacet
  facet normal -0.83871698080331025 -0.34740794844134598 0.41935849040165513
    outer loop
      vertex -1.178511301977579 -1.1785113019775793 6.666666666666667
      vertex -1.6666666666666665 -2.0410779985789218e-16 6.666666666666667
      vertex -2.5 -3.0616169978683831e-16 5
    endloop
  endfacet
  facet normal -0.83871698080331014 0.34740794844134559 0.41935849040165507
    outer loop
      vertex -1.6666666666666665 -2.0410779985789218e-16 6.666666666666667
      vertex -1.1785113019775795 1.178511301977579 6.666666666666667
      vertex -1.7677669529663693 1.7677669529663687 5
    endloop
  endfacet
  facet normal -0.34740794844134593 0.83871698080331025 0.41935849040165513
    outer loop
      vertex -1.1785113019775795 1.178511301977579 6.666666666666667
      vertex -3.0616169978683826e-16 1.6666666666666665 6.666666666666667
      vertex -4.592425496802574e-16 2.5 5
    endloop
  endfacet
  facet normal 0.3474079484413457 0.83871698080331025 0.41935849040165513
    outer loop
      vertex -3.0616169978683826e-16 1.6666666666666665 6.666666666666667
      vertex 1.1785113019775788 1.1785113019775795 6.666666666666667
      vertex 1.7677669529663684 1.7677669529663693 5
    endloop
  endfacet
  facet normal 0.83871698080331025 0.34740794844134598 0.41935849040165513
    outer loop
      vertex 1.1785113019775788 1.1785113019775795 6.666666666666667
      vertex 1.6666666666666665 0 6.666666666666667
      vertex 2.5 0 5
    endloop
  endfacet
  facet normal 0.83871698080331003 -0.34740794844134576 0.41935849040165513
    outer loop
      vertex 2.5 0 5
      vertex 1.7677669529663689 -1.7677669529663689 5
      vertex 2.3570226039551585 -2.3570226039551585 3.3333333333333339
    endloop
  endfacet
  facet normal 0.34740794844134593 -0.83871698080331025 0.41935849040165513
    outer loop
      vertex 1.7677669529663689 -1.7677669529663689 5
      vertex 1.5308084989341916e-16 -2.5 5
      vertex 2.0410779985789218e-16 -3.333333333333333 3.3333333333333339
    endloop
  endfacet
  facet normal -0.34740794844134587 -0.83871698080331025 0.41935849040165513
    outer loop
      vertex 1.5308084989341916e-16 -2.5 5
      vertex -1.7677669529663687 -1.7677669529663689 5
      vertex -2.3570226039551581 -2.3570226039551585 3.3333333333333339
    endloop
  endfacet
  facet normal -0.83871698080331003 -0.34740794844134593 0.41935849040165502
    outer loop
      vertex -1.7677669529663687 -1.7677669529663689 5
      vertex -2.5 -3.0616169978683831e-16 5
      vertex -3.333333333333333 -4.0821559971578437e-16 3.3333333333333339
    endloop
  endfacet
  facet normal -0.83871698080331025 0.34740794844134559 0.41935849040165513
    outer loop
      vertex -2.5 -3.0616169978683831e-16 5
      vertex -1.7677669529663693 1.7677669529663687 5
      vertex -3.333333333333333 -4.0821559971578437e-16 3.3333333333333339
    endloop
  endfacet
  facet normal -0.34740794844134598 0.83871698080331025 0.41935849040165513
    outer loop
      vertex -1.7677669529663693 1.7677669529663687 5
      vertex -4.592425496802574e-16 2.5 5
      vertex -6.1232339957367653e-16 3.333333333333333 3.3333333333333339
    endloop
  endfacet
  facet normal 0.34740794844134565 0.83871698080331025 0.41935849040165513
    outer loop
      vertex -4.592425496802574e-16 2.5 5
      vertex 1.7677669529663684 1.7677669529663693 5
      vertex -6.1232339957367653e-16 3.333333333333333 3.3333333333333339
    endloop
  endfacet
  facet normal 0.83871698080331025 0.34740794844134598 0.41935849040165513
    outer loop
      vertex 1.7677669529663684 1.7677669529663693 5
      vertex 2.5 0 5
      vertex 3.333333333333333 0 3.3333333333333339
    endloop
  endfacet
  facet normal 0.83871698080331025 -0.34740794844134576 0.41935849040165513
    outer loop
      vertex 3.333333333333333 0 3.3333333333333339
      vertex 2.3570226039551585 -2.3570226039551585 3.3333333333333339
      vertex 4.166666666666667 0 1.6666666666666661
    endloop
  endfacet
  facet normal 0.34740794844134576 -0.83871698080331025 0.41935849040165518
    outer loop
      vertex 2.3570226039551585 -2.3570226039551585 3.3333333333333339
      vertex 2.0410779985789218e-16 -3.333333333333333 3.3333333333333339
      vertex 2.5513474982236529e-16 -4.166666666666667 1.6666666666666661
    endloop
  endfacet
  facet normal -0.34740794844134582 -0.83871698080331025 0.41935849040165513
    outer loop
      vertex 2.0410779985789218e-16 -3.333333333333333 3.3333333333333339
      vertex -2.3570226039551581 -2.3570226039551585 3.3333333333333339
      vertex -2.9462782549439481 -2.9462782549439486 1.6666666666666661
    endloop
  endfacet
  facet normal -0.83871698080331025 -0.34740794844134598 0.41935849040165513
    outer loop
      vertex -2.3570226039551581 -2.3570226039551585 3.3333333333333339
      vertex -3.333333333333333 -4.0821559971578437e-16 3.3333333333333339
      vertex -4.166666666666667 -5.1026949964473057e-16 1.6666666666666661
    endloop
  endfacet
  facet normal -0.83871698080331025 0.34740794844134565 0.41935849040165513
    outer loop
      vertex -3.333333333333333 -4.0821559971578437e-16 3.3333333333333339
      vertex -2.3570226039551589 2.3570226039551581 3.3333333333333339
      vertex -4.166666666666667 -5.1026949964473057e-16 1.6666666666666661
    endloop
  endfacet
  facet normal -0.34740794844134587 0.83871698080331014 0.41935849040165513
    outer loop
      vertex -2.3570226039551589 2.3570226039551581 3.3333333333333339
      vertex -6.1232339957367653e-16 3.333333333333333 3.3333333333333339
      vertex -7.6540424946709576e-16 4.166666666666667 1.6666666666666661
    endloop
  endfacet
  facet normal 0.34740794844134565 0.83871698080331014 0.41935849040165496
    outer loop
      vertex -6.1232339957367653e-16 3.333333333333333 3.3333333333333339
      vertex 2.3570226039551576 2.3570226039551589 3.3333333333333339
      vertex 2.9462782549439477 2.946278254943949 1.6666666666666661
    endloop
  endfacet
  facet normal 0.83871698080331003 0.34740794844134598 0.41935849040165496
    outer loop
      vertex 2.3570226039551576 2.3570226039551589 3.3333333333333339
      vertex 3.333333333333333 0 3.3333333333333339
      vertex 4.166666666666667 0 1.6666666666666661
    endloop
  endfacet
  facet normal 0.83871698080331025 -0.34740794844134576 0.41935849040165513
    outer loop
      vertex 4.166666666666667 0 1.6666666666666661
      vertex 2.9462782549439486 -2.9462782549439486 1.6666666666666661
      vertex 5 0 0
    endloop
  endfacet
  facet normal 0.34740794844134582 -0.83871698080331025 0.41935849040165513
    outer loop
      vertex 2.9462782549439486 -2.9462782549439486 1.6666666666666661
      vertex 2.5513474982236529e-16 -4.166666666666667 1.6666666666666661
      vertex 3.0616169978683831e-16 -5 0
    endloop
  endfacet
  facet normal -0.34740794844134576 -0.83871698080331025 0.41935849040165513
    outer loop
      vertex 2.5513474982236529e-16 -4.166666666666667 1.6666666666666661
      vertex -2.9462782549439481 -2.9462782549439486 1.6666666666666661
      vertex 3.0616169978683831e-16 -5 0
    endloop
  endfacet
  facet normal -0.83871698080331025 -0.34740794844134593 0.41935849040165513
    outer loop
      vertex -2.9462782549439481 -2.9462782549439486 1.6666666666666661
      vertex -4.166666666666667 -5.1026949964473057e-16 1.6666666666666661
      vertex -5 -6.1232339957367663e-16 0
    endloop
  endfacet
  facet normal -0.83871698080331025 0.34740794844134565 0.41935849040165507
    outer loop
      vertex -4.166666666666667 -5.1026949964473057e-16 1.6666666666666661
      vertex -2.946278254943949 2.9462782549439481 1.6666666666666661
      vertex -3.5355339059327386 3.5355339059327373 0
    endloop
  endfacet
  facet normal -0.34740794844134593 0.83871698080331025 0.41935849040165513
    outer loop
      vertex -2.946278254943949 2.9462782549439481 1.6666666666666661
      vertex -7.6540424946709576e-16 4.166666666666667 1.6666666666666661
      vertex -9.1848509936051479e-16 5 0
    endloop
  endfacet
  facet normal 0.34740794844134565 0.83871698080331025 0.41935849040165507
    outer loop
      vertex -7.6540424946709576e-16 4.166666666666667 1.6666666666666661
      vertex 2.9462782549439477 2.946278254943949 1.6666666666666661
      vertex 3.5355339059327369 3.5355339059327386 0
    endloop
  endfacet
  facet normal 0.83871698080331025 0.34740794844134598 0.41935849040165507
    outer loop
      vertex 2.9462782549439477 2.946278254943949 1.6666666666666661
      vertex 4.166666666666667 0 1.6666666666666661
      vertex 3.5355339059327369 3.5355339059327386 0
    endloop
  endfacet
  facet normal 0 0 -1
    outer loop
      vertex 0 0 0
      vertex 5 0 0
      vertex 3.5355339059327378 -3.5355339059327378 0
    endloop
  endfacet
  facet normal 0 0 -1
    outer loop
      vertex 0 0 0
      vertex 3.5355339059327378 -3.5355339059327378 0
      vertex 3.0616169978683831e-16 -5 0
    endloop
  endfacet
  facet normal -0 -0 -1
    outer loop
      vertex 0 0 0
      vertex 3.0616169978683831e-16 -5 0
      vertex -3.5355339059327373 -3.5355339059327378 0
    endloop
  endfacet
  facet normal 0 -0 -1
    outer loop
      vertex 0 0 0
      vertex -3.5355339059327373 -3.5355339059327378 0
      vertex -5 -6.1232339957367663e-16 0
    endloop
  endfacet
  facet normal 0 -0 -1
    outer loop
      vertex 0 0 0
      vertex -5 -6.1232339957367663e-16 0
      vertex -3.5355339059327386 3.5355339059327373 0
    endloop
  endfacet
  facet normal -0 -0 -1
    outer loop
      vertex 0 0 0
      vertex -3.5355339059327386 3.5355339059327373 0
      vertex -9.1848509936051479e-16 5 0
    endloop
  endfacet
  facet normal -0 0 -1
    outer loop
      vertex 0 0 0
      vertex -9.1848509936051479e-16 5 0
      vertex 3.5355339059327369 3.5355339059327386 0
    endloop
  endfacet
  facet normal -0 0 -1
    outer loop
      vertex 0 0 0
      vertex 3.5355339059327369 3.5355339059327386 0
      vertex 5 0 0
    endloop
  endfacet
  facet normal 0.83871698080331025 -0.34740794844134576 0.41935849040165502
    outer loop
      vertex 0.58925565098878963 -0.58925565098878963 8.3333333333333339
      vertex 1.1785113019775793 -1.1785113019775793 6.666666666666667
      vertex 1.6666666666666665 0 6.666666666666667
    endloop
  endfacet
  facet normal 0.34740794844134576 -0.83871698080331025 0.41935849040165507
    outer loop
      vertex 0.58925565098878963 -0.58925565098878963 8.3333333333333339
      vertex 1.0205389992894609e-16 -1.6666666666666665 6.666666666666667
      vertex 1.1785113019775793 -1.1785113019775793 6.666666666666667
    endloop
  endfacet
  facet normal -0.34740794844134576 -0.83871698080331014 0.41935849040165496
    outer loop
      vertex 5.1026949964473046e-17 -0.83333333333333326 8.3333333333333339
      vertex -1.178511301977579 -1.1785113019775793 6.666666666666667
      vertex 1.0205389992894609e-16 -1.6666666666666665 6.666666666666667
    endloop
  endfacet
  facet normal -0.83871698080331014 -0.34740794844134587 0.41935849040165496
    outer loop
      vertex -0.58925565098878951 -0.58925565098878963 8.3333333333333339
      vertex -1.6666666666666665 -2.0410779985789218e-16 6.666666666666667
      vertex -1.178511301977579 -1.1785113019775793 6.666666666666667
    endloop
  endfacet
  facet normal -0.83871698080331014 0.34740794844134559 0.41935849040165496
    outer loop
      vertex -0.83333333333333326 -1.0205389992894609e-16 8.3333333333333339
      vertex -1.1785113019775795 1.178511301977579 6.666666666666667
      vertex -1.6666666666666665 -2.0410779985789218e-16 6.666666666666667
    endloop
  endfacet
  facet normal -0.34740794844134587 0.83871698080331014 0.41935849040165496
    outer loop
      vertex -0.58925565098878974 0.58925565098878951 8.3333333333333339
      vertex -3.0616169978683826e-16 1.6666666666666665 6.666666666666667
      vertex -1.1785113019775795 1.178511301977579 6.666666666666667
    endloop
  endfacet
  facet normal 0.34740794844134559 0.83871698080331014 0.41935849040165496
    outer loop
      vertex -1.5308084989341913e-16 0.83333333333333326 8.3333333333333339
      vertex 1.1785113019775788 1.1785113019775795 6.666666666666667
      vertex -3.0616169978683826e-16 1.6666666666666665 6.666666666666667
    endloop
  endfacet
  facet normal 0.83871698080331025 0.34740794844134598 0.41935849040165502
    outer loop
      vertex 0.5892556509887894 0.58925565098878974 8.3333333333333339
      vertex 1.6666666666666665 0 6.666666666666667
      vertex 1.1785113019775788 1.1785113019775795 6.666666666666667
    endloop
  endfacet
  facet normal 0.83871698080331025 -0.34740794844134587 0.41935849040165513
    outer loop
      vertex 1.6666666666666665 0 6.666666666666667
      vertex 1.7677669529663689 -1.7677669529663689 5
      vertex 2.5 0 5
    endloop
  endfacet
  facet normal 0.34740794844134593 -0.83871698080331025 0.41935849040165507
    outer loop
      vertex 1.1785113019775793 -1.1785113019775793 6.666666666666667
      vertex 1.5308084989341916e-16 -2.5 5
      vertex 1.7677669529663689 -1.7677669529663689 5
    endloop
  endfacet
  facet normal -0.34740794844134587 -0.83871698080331025 0.41935849040165513
    outer loop
      vertex 1.0205389992894609e-16 -1.6666666666666665 6.666666666666667
      vertex -1.7677669529663687 -1.7677669529663689 5
      vertex 1.5308084989341916e-16 -2.5 5
    endloop
  endfacet
  facet normal -0.83871698080331025 -0.34740794844134604 0.41935849040165513
    outer loop
      vertex -1.178511301977579 -1.1785113019775793 6.666666666666667
      vertex -2.5 -3.0616169978683831e-16 5
      vertex -1.7677669529663687 -1.7677669529663689 5
    endloop
  endfacet
  facet normal -0.83871698080331025 0.34740794844134565 0.41935849040165513
    outer loop
      vertex -1.6666666666666665 -2.0410779985789218e-16 6.666666666666667
      vertex -1.7677669529663693 1.7677669529663687 5
      vertex -2.5 -3.0616169978683831e-16 5
    endloop
  endfacet
  facet normal -0.34740794844134598 0.83871698080331025 0.41935849040165513
    outer loop
      vertex -1.1785113019775795 1.178511301977579 6.666666666666667
      vertex -4.592425496802574e-16 2.5 5
      vertex -1.7677669529663693 1.7677669529663687 5
    endloop
  endfacet
  facet normal 0.34740794844134559 0.83871698080331014 0.41935849040165507
    outer loop
      vertex -3.0616169978683826e-16 1.6666666666666665 6.666666666666667
      vertex 1.7677669529663684 1.7677669529663693 5
      vertex -4.592425496802574e-16 2.5 5
    endloop
  endfacet
  facet normal 0.83871698080331025 0.34740794844134598 0.41935849040165513
    outer loop
      vertex 1.1785113019775788 1.1785113019775795 6.666666666666667
      vertex 2.5 0 5
      vertex 1.7677669529663684 1.7677669529663693 5
    endloop
  endfacet
  facet normal 0.83871698080331025 -0.34740794844134576 0.41935849040165513
    outer loop
      vertex 2.5 0 5
      vertex 2.3570226039551585 -2.3570226039551585 3.3333333333333339
      vertex 3.333333333333333 0 3.3333333333333339
    endloop
  endfacet
  facet normal 0.34740794844134576 -0.83871698080331025 0.41935849040165524
    outer loop
      vertex 1.7677669529663689 -1.7677669529663689 5
      vertex 2.0410779985789218e-16 -3.333333333333333 3.3333333333333339
      vertex 2.3570226039551585 -2.3570226039551585 3.3333333333333339
    endloop
  endfacet
  facet normal -0.34740794844134582 -0.83871698080331025 0.41935849040165513
    outer loop
      vertex 1.5308084989341916e-16 -2.5 5
      vertex -2.3570226039551581 -2.3570226039551585 3.3333333333333339
      vertex 2.0410779985789218e-16 -3.333333333333333 3.3333333333333339
    endloop
  endfacet
  facet normal -0.83871698080330992 -0.34740794844134587 0.41935849040165507
    outer loop
      vertex -1.7677669529663687 -1.7677669529663689 5
      vertex -3.333333333333333 -4.0821559971578437e-16 3.3333333333333339
      vertex -2.3570226039551581 -2.3570226039551585 3.3333333333333339
    endloop
  endfacet
  facet normal -0.83871698080331014 0.34740794844134554 0.41935849040165507
    outer loop
      vertex -1.7677669529663693 1.7677669529663687 5
      vertex -2.3570226039551589 2.3570226039551581 3.3333333333333339
      vertex -3.333333333333333 -4.0821559971578437e-16 3.3333333333333339
    endloop
  endfacet
  facet normal -0.34740794844134582 0.83871698080331003 0.41935849040165513
    outer loop
      vertex -1.7677669529663693 1.7677669529663687 5
      vertex -6.1232339957367653e-16 3.333333333333333 3.3333333333333339
      vertex -2.3570226039551589 2.3570226039551581 3.3333333333333339
    endloop
  endfacet
  facet normal 0.34740794844134565 0.83871698080331025 0.41935849040165507
    outer loop
      vertex 1.7677669529663684 1.7677669529663693 5
      vertex 2.3570226039551576 2.3570226039551589 3.3333333333333339
      vertex -6.1232339957367653e-16 3.333333333333333 3.3333333333333339
    endloop
  endfacet
  facet normal 0.83871698080331025 0.34740794844134598 0.41935849040165513
    outer loop
      vertex 1.7677669529663684 1.7677669529663693 5
      vertex 3.333333333333333 0 3.3333333333333339
      vertex 2.3570226039551576 2.3570226039551589 3.3333333333333339
    endloop
  endfacet
  facet normal 0.83871698080331025 -0.34740794844134576 0.41935849040165513
    outer loop
      vertex 2.3570226039551585 -2.3570226039551585 3.3333333333333339
      vertex 2.9462782549439486 -2.9462782549439486 1.6666666666666661
      vertex 4.166666666666667 0 1.6666666666666661
    endloop
  endfacet
  facet normal 0.34740794844134582 -0.83871698080331025 0.41935849040165513
    outer loop
      vertex 2.3570226039551585 -2.3570226039551585 3.3333333333333339
      vertex 2.5513474982236529e-16 -4.166666666666667 1.6666666666666661
      vertex 2.9462782549439486 -2.9462782549439486 1.6666666666666661
    endloop
  endfacet
  facet normal -0.34740794844134576 -0.83871698080331025 0.41935849040165513
    outer loop
      vertex 2.0410779985789218e-16 -3.333333333333333 3.3333333333333339
      vertex -2.9462782549439481 -2.9462782549439486 1.6666666666666661
      vertex 2.5513474982236529e-16 -4.166666666666667 1.6666666666666661
    endloop
  endfacet
  facet normal -0.83871698080331025 -0.34740794844134593 0.41935849040165513
    outer loop
      vertex -2.3570226039551581 -2.3570226039551585 3.3333333333333339
      vertex -4.166666666666667 -5.1026949964473057e-16 1.6666666666666661
      vertex -2.9462782549439481 -2.9462782549439486 1.6666666666666661
    endloop
  endfacet
  facet normal -0.83871698080331025 0.34740794844134565 0.41935849040165502
    outer loop
      vertex -2.3570226039551589 2.3570226039551581 3.3333333333333339
      vertex -2.946278254943949 2.9462782549439481 1.6666666666666661
      vertex -4.166666666666667 -5.1026949964473057e-16 1.6666666666666661
    endloop
  endfacet
  facet normal -0.34740794844134593 0.83871698080331025 0.41935849040165513
    outer loop
      vertex -2.3570226039551589 2.3570226039551581 3.3333333333333339
      vertex -7.6540424946709576e-16 4.166666666666667 1.6666666666666661
      vertex -2.946278254943949 2.9462782549439481 1.6666666666666661
    endloop
  endfacet
  facet normal 0.34740794844134565 0.83871698080331025 0.41935849040165507
    outer loop
      vertex -6.1232339957367653e-16 3.333333333333333 3.3333333333333339
      vertex 2.9462782549439477 2.946278254943949 1.6666666666666661
      vertex -7.6540424946709576e-16 4.166666666666667 1.6666666666666661
    endloop
  endfacet
  facet normal 0.83871698080331014 0.34740794844134593 0.41935849040165507
    outer loop
      vertex 2.3570226039551576 2.3570226039551589 3.3333333333333339
      vertex 4.166666666666667 0 1.6666666666666661
      vertex 2.9462782549439477 2.946278254943949 1.6666666666666661
    endloop
  endfacet
  facet normal 0.83871698080331025 -0.34740794844134587 0.41935849040165496
    outer loop
      vertex 2.9462782549439486 -2.9462782549439486 1.6666666666666661
      vertex 3.5355339059327378 -3.5355339059327378 0
      vertex 5 0 0
    endloop
  endfacet
  facet normal 0.34740794844134593 -0.83871698080331025 0.41935849040165496
    outer loop
      vertex 2.9462782549439486 -2.9462782549439486 1.6666666666666661
      vertex 3.0616169978683831e-16 -5 0
      vertex 3.5355339059327378 -3.5355339059327378 0
    endloop
  endfacet
  facet normal -0.34740794844134587 -0.83871698080331025 0.41935849040165496
    outer loop
      vertex -2.9462782549439481 -2.9462782549439486 1.6666666666666661
      vertex -3.5355339059327373 -3.5355339059327378 0
      vertex 3.0616169978683831e-16 -5 0
    endloop
  endfacet
  facet normal -0.83871698080331003 -0.34740794844134593 0.4193584904016549
    outer loop
      vertex -2.9462782549439481 -2.9462782549439486 1.6666666666666661
      vertex -5 -6.1232339957367663e-16 0
      vertex -3.5355339059327373 -3.5355339059327378 0
    endloop
  endfacet
  facet normal -0.83871698080331025 0.34740794844134565 0.41935849040165513
    outer loop
      vertex -4.166666666666667 -5.1026949964473057e-16 1.6666666666666661
      vertex -3.5355339059327386 3.5355339059327373 0
      vertex -5 -6.1232339957367663e-16 0
    endloop
  endfacet
  facet normal -0.34740794844134598 0.83871698080331025 0.41935849040165513
    outer loop
      vertex -2.946278254943949 2.9462782549439481 1.6666666666666661
      vertex -9.1848509936051479e-16 5 0
      vertex -3.5355339059327386 3.5355339059327373 0
    endloop
  endfacet
  facet normal 0.34740794844134565 0.83871698080331025 0.41935849040165513
    outer loop
      vertex -7.6540424946709576e-16 4.166666666666667 1.6666666666666661
      vertex 3.5355339059327369 3.5355339059327386 0
      vertex -9.1848509936051479e-16 5 0
    endloop
  endfacet
  facet normal 0.83871698080331025 0.34740794844134598 0.41935849040165513
    outer loop
      vertex 4.166666666666667 0 1.6666666666666661
      vertex 5 0 0
      vertex 3.5355339059327369 3.5355339059327386 0
    endloop
  endfacet
endsolid OBJECT
