# Rhino

mtllib Cone_10x10_30_obj.mtl
usemtl diffuse_0
v 0 10 0
v 1.6666666666666665 6.666666666666667 0
v 0.51502832395824572 6.666666666666667 1.5850941938252558
v -1.3483616572915789 6.666666666666667 0.97964208715412204
v -1.3483616572915789 6.666666666666667 -0.9796420871541216
v 0.51502832395824538 6.666666666666667 -1.5850941938252558
v 3.333333333333333 3.3333333333333339 0
v 1.0300566479164914 3.3333333333333339 3.1701883876505117
v -2.6967233145831577 3.3333333333333339 1.9592841743082441
v -2.6967233145831577 3.3333333333333339 -1.9592841743082432
v 1.0300566479164908 3.3333333333333339 -3.1701883876505117
v 5 0 0
v 1.5450849718747373 0 4.7552825814757673
v -4.0450849718747364 0 2.9389262614623664
v -4.0450849718747373 0 -2.938926261462365
v 1.5450849718747361 0 -4.7552825814757682
v 0 0 0
v 5 0 0
v 1.5450849718747373 0 4.7552825814757673
v -4.0450849718747364 0 2.9389262614623664
v -4.0450849718747373 0 -2.938926261462365
v 1.5450849718747361 0 -4.7552825814757682
vt 0 0
vt 0 0.3333333432674408
vt 0.20000000298023224 0.3333333432674408
vt 0.40000000596046448 0.3333333432674408
vt 0.60000002384185791 0.3333333432674408
vt 0.80000001192092896 0.3333333432674408
vt 0 0.66666668653488159
vt 0.20000000298023224 0.66666668653488159
vt 0.40000000596046448 0.66666668653488159
vt 0.60000002384185791 0.66666668653488159
vt 0.80000001192092896 0.66666668653488159
vt 0 1
vt 0.20000000298023224 1
vt 0.40000000596046448 1
vt 0.60000002384185791 1
vt 0.80000001192092896 1
vt 0.5 0.5
vt 1 0.5
vt 0.65450847148895264 0.024471741169691086
vt 0.095491506159305573 0.20610737800598145
vt 0.095491506159305573 0.79389262199401855
vt 0.65450847148895264 0.97552824020385742
vn 0 1 0
vn 0.89442718029022217 0.44721359014511108 0
vn 0.27639320492744446 0.44721359014511108 0.85065078735351563
vn -0.72360682487487793 0.44721359014511108 0.52573108673095703
vn -0.72360682487487793 0.44721359014511108 -0.52573108673095703
vn 0.27639320492744446 0.44721359014511108 -0.85065078735351563
vn 0.89442718029022217 0.44721359014511108 0
vn 0.27639320492744446 0.44721359014511108 0.85065078735351563
vn -0.72360682487487793 0.44721359014511108 0.52573108673095703
vn -0.72360682487487793 0.44721359014511108 -0.52573108673095703
vn 0.27639320492744446 0.44721359014511108 -0.85065078735351563
vn 0.89442718029022217 0.44721359014511108 0
vn 0.27639320492744446 0.44721359014511108 0.85065078735351563
vn -0.72360682487487793 0.44721359014511108 0.52573108673095703
vn -0.72360682487487793 0.44721359014511108 -0.52573108673095703
vn 0.27639320492744446 0.44721359014511108 -0.85065078735351563
vn 0 -1 0
vn 0 -1 0
vn 0 -1 0
vn 0 -1 0
vn 0 -1 0
vn 0 -1 0
f 1/1/1 3/3/3 2/2/2
f 1/1/1 4/4/4 3/3/3
f 1/1/1 5/5/5 4/4/4
f 1/1/1 6/6/6 5/5/5
f 1/1/1 2/2/2 6/6/6
f 2/2/2 3/3/3 8/8/8
f 3/3/3 4/4/4 9/9/9
f 4/4/4 5/5/5 10/10/10
f 5/5/5 6/6/6 11/11/11
f 6/6/6 2/2/2 11/11/11
f 7/7/7 8/8/8 13/13/13
f 8/8/8 9/9/9 13/13/13
f 9/9/9 10/10/10 14/14/14
f 10/10/10 11/11/11 16/16/16
f 11/11/11 7/7/7 12/12/12
f 17/17/17 18/18/18 19/19/19
f 17/17/17 19/19/19 20/20/20
f 17/17/17 20/20/20 21/21/21
f 17/17/17 21/21/21 22/22/22
f 17/17/17 22/22/22 18/18/18
f 2/2/2 8/8/8 7/7/7
f 3/3/3 9/9/9 8/8/8
f 4/4/4 10/10/10 9/9/9
f 5/5/5 11/11/11 10/10/10
f 2/2/2 7/7/7 11/11/11
f 7/7/7 13/13/13 12/12/12
f 9/9/9 14/14/14 13/13/13
f 10/10/10 15/15/15 14/14/14
f 10/10/10 16/16/16 15/15/15
f 11/11/11 12/12/12 16/16/16
